#!OML:ASF I:\Actors\actors\Patient Classification 1\Patient 1\Session 1\Subject1.ASF
:FULLY-SPECIFIED
:DEGREES
173
root 0.0676922 17.4972 8.24142 10.1375 1.35247 -8.06719
lowerback -1.44782 1.523 4.78552
upperback -7.75417 2.26584 1.36289
thorax -7.16937 0.873599 -1.35075
lowerneck -9.15704 -4.98774 -0.656028
upperneck 23.9038 -8.12585 4.97982
head 9.2537 -3.34987 0.941247
rclavicle 2.90226e-014 -3.69739e-014
rhumerus -39.0745 -15.1796 -79.8279
rradius 39.6141
rwrist 30.7755
rhand 14.0047 -35.4736
rfingers 7.12502
rthumb 38.914 -61.0182
lclavicle 2.90226e-014 -3.69739e-014
lhumerus -44.0955 15.599 80.9076
lradius 37.1707
lwrist -17.0079
lhand -4.76727 -3.17402
lfingers 7.12502
lthumb 21.017 25.7072
rfemur -7.16046 21.5701 22.86
rtibia 5.43631
rfoot -13.5585 -23.7409
rtoes 1.74629
lfemur 0.757504 -45.4648 -9.48589
ltibia -3.67952
lfoot -21.8468 52.5888
ltoes 12.1321
174
root 0.067833 17.4982 8.24329 10.1706 1.44744 -8.0067
lowerback -1.41881 1.50984 4.72136
upperback -7.77688 2.2496 1.3627
thorax -7.21341 0.868433 -1.31573
lowerneck -9.22091 -4.97112 -0.6304
upperneck 24.0091 -8.09704 4.90645
head 9.29713 -3.33723 0.912997
rclavicle -1.49089e-014 -1.82882e-014
rhumerus -38.8935 -14.3689 -80.2975
rradius 40.5672
rwrist 30.2416
rhand 14.3274 -36.1607
rfingers 7.12502
rthumb 39.2182 -61.6179
lclavicle -1.49089e-014 -1.82882e-014
lhumerus -44.0154 14.6762 81.789
lradius 38.4245
lwrist -16.7433
lhand -2.72429 -2.49873
lfingers 7.12502
lthumb 22.9785 26.1517
rfemur -7.17117 21.6141 22.784
rtibia 5.42217
rfoot -13.6258 -23.8576
rtoes 2.04053
lfemur 0.740814 -45.7182 -9.53591
ltibia -3.71173
lfoot -21.9591 52.7519
ltoes 12.0067
175
root 0.0682599 17.4997 8.24636 10.2409 1.54155 -7.87957
lowerback -1.45788 1.4975 4.60699
upperback -7.79761 2.2261 1.32237
thorax -7.21575 0.862447 -1.29249
lowerneck -9.32441 -4.95156 -0.537808
upperneck 24.0959 -8.06923 4.80637
head 9.33769 -3.32168 0.863415
rclavicle -2.26615e-014 -2.10712e-014
rhumerus -38.7611 -13.5357 -80.8331
rradius 41.7284
rwrist 29.6144
rhand 14.7904 -37.3127
rfingers 7.12502
rthumb 39.6543 -62.6421
lclavicle -2.26615e-014 -2.10712e-014
lhumerus -43.9613 13.6258 82.6998
lradius 39.8401
lwrist -16.3947
lhand -0.828716 -1.64514
lfingers 7.12502
lthumb 24.7964 26.7673
rfemur -7.21637 21.5927 22.6122
rtibia 5.39487
rfoot -13.657 -23.9387
rtoes 2.13705
lfemur 0.670886 -46.0347 -9.6404
ltibia -3.71071
lfoot -22.1573 52.9334
ltoes 12.232
176
root 0.0681068 17.5003 8.24932 10.2802 1.67127 -7.87875
lowerback -1.44837 1.49535 4.62926
upperback -7.83244 2.22565 1.31107
thorax -7.25817 0.859134 -1.31734
lowerneck -9.45988 -4.96729 -0.540825
upperneck 24.2241 -8.09572 4.78147
head 9.40831 -3.33014 0.847938
rclavicle 3.37934e-015 -5.96354e-015
rhumerus -38.7779 -12.9463 -81.1997
rradius 42.8148
rwrist 29.9194
rhand 15.0835 -37.6641
rfingers 7.12502
rthumb 39.9303 -62.9111
lclavicle 3.37934e-015 -5.96354e-015
lhumerus -43.9879 12.4398 83.6597
lradius 41.4845
lwrist -16.2095
lhand 1.62193 -0.507592
lfingers 7.12502
lthumb 27.143 27.5606
rfemur -7.20703 21.654 22.6184
rtibia 5.34042
rfoot -13.6886 -24.1256
rtoes 2.21382
lfemur 0.615091 -46.2509 -9.58875
ltibia -3.72498
lfoot -22.2001 53.0134
ltoes 12.3429
177
root 0.0660086 17.5011 8.25174 10.3105 1.79971 -7.9343
lowerback -1.40225 1.50143 4.68526
upperback -7.86852 2.2409 1.31992
thorax -7.3224 0.861641 -1.34161
lowerneck -9.65452 -5.00605 -0.610084
upperneck 24.3742 -8.16222 4.826
head 9.50558 -3.35381 0.860679
rclavicle 7.60351e-015 -3.69739e-014
rhumerus -38.8926 -12.5758 -81.4119
rradius 43.8913
rwrist 31.1161
rhand 15.1921 -37.3142
rfingers 7.12502
rthumb 40.0324 -62.5305
lclavicle 7.60351e-015 -3.69739e-014
lhumerus -44.0821 11.1256 84.671
lradius 43.4044
lwrist -16.4403
lhand 4.6077 0.710821
lfingers 7.12502
lthumb 29.9957 28.2989
rfemur -7.18854 21.7865 22.7005
rtibia 5.28019
rfoot -13.7145 -24.3715
rtoes 2.2871
lfemur 0.548789 -46.4552 -9.45244
ltibia -3.72368
lfoot -22.3149 53.0808
ltoes 12.481
178
root 0.0637982 17.5032 8.25415 10.3642 1.90154 -7.91457
lowerback -1.37669 1.49953 4.64314
upperback -7.89945 2.24047 1.31966
thorax -7.37201 0.86279 -1.31957
lowerneck -9.78899 -5.01759 -0.63871
upperneck 24.4148 -8.18773 4.86556
head 9.54957 -3.35965 0.871978
rclavicle -2.45499e-014 -2.18663e-014
rhumerus -38.9984 -12.1725 -81.6286
rradius 45.0961
rwrist 32.6164
rhand 15.2871 -36.9719
rfingers 7.12502
rthumb 40.1218 -62.1611
lclavicle -2.45499e-014 -2.18663e-014
lhumerus -44.2316 9.83507 85.6787
lradius 45.5541
lwrist -17.1849
lhand 7.22833 1.59904
lfingers 7.12502
lthumb 32.493 28.7049
rfemur -7.19066 21.9324 22.6746
rtibia 5.20289
rfoot -13.7525 -24.593
rtoes 2.4258
lfemur 0.443432 -46.6987 -9.39259
ltibia -3.68407
lfoot -22.5277 53.1842
ltoes 12.6099
179
root 0.0627136 17.5052 8.25787 10.3727 2.03193 -7.98712
lowerback -1.33807 1.49872 4.74077
upperback -7.89726 2.24656 1.34509
thorax -7.39041 0.860097 -1.34856
lowerneck -9.88249 -5.00667 -0.722028
upperneck 24.361 -8.17185 4.94165
head 9.5549 -3.3507 0.911293
rclavicle 6.36111e-015 1.03368e-014
rhumerus -39.0492 -11.6407 -81.9307
rradius 46.6839
rwrist 33.5788
rhand 15.9178 -37.334
rfingers 7.12502
rthumb 40.7149 -62.3403
lclavicle 6.36111e-015 1.03368e-014
lhumerus -44.3436 8.74647 86.6121
lradius 47.7882
lwrist -18.4221
lhand 9.33403 2.02389
lfingers 7.12502
lthumb 34.4944 28.6965
rfemur -7.09635 22.0384 22.79
rtibia 5.06957
rfoot -13.7393 -24.8036
rtoes 2.46191
lfemur 0.388437 -46.732 -9.2424
ltibia -3.71481
lfoot -22.2376 53.1997
ltoes 12.1203
180
root 0.0623993 17.5049 8.26346 10.3652 2.20885 -8.11915
lowerback -1.3233 1.48922 4.94781
upperback -7.87348 2.2426 1.38485
thorax -7.37001 0.847015 -1.42186
lowerneck -10.0391 -4.98983 -0.853236
upperneck 24.3454 -8.1416 5.01845
head 9.58723 -3.33675 0.95854
rclavicle 9.69075e-015 4.57205e-014
rhumerus -39.094 -11.0081 -82.3627
rradius 49.0216
rwrist 33.2799
rhand 17.6181 -39.5982
rfingers 7.12502
rthumb 42.3101 -64.0835
lclavicle 9.69075e-015 4.57205e-014
lhumerus -44.3964 7.89992 87.4206
lradius 49.9988
lwrist -19.6081
lhand 10.9036 1.35812
lfingers 7.12502
lthumb 35.9828 27.6788
rfemur -6.9449 22.0837 22.9966
rtibia 4.89431
rfoot -13.7042 -25.0039
rtoes 2.41795
lfemur 0.315808 -46.5597 -8.98991
ltibia -3.77587
lfoot -21.7197 53.0128
ltoes 11.5672
181
root 0.0627851 17.5029 8.268 10.4194 2.3552 -8.17443
lowerback -1.51683 1.44586 4.98735
upperback -7.75718 2.17239 1.47717
thorax -7.13817 0.820388 -1.33742
lowerneck -10.2463 -4.92239 -0.999179
upperneck 24.2543 -8.02518 5.07236
head 9.59862 -3.28751 1.00953
rclavicle 5.96354e-016 7.95139e-015
rhumerus -38.9736 -10.5905 -82.6116
rradius 51.1151
rwrist 34.577
rhand 19.1362 -40.2914
rfingers 7.12502
rthumb 43.7296 -64.2744
lclavicle 5.96354e-016 7.95139e-015
lhumerus -44.2765 7.45587 88.1482
lradius 52.1996
lwrist -20.1132
lhand 12.1899 -0.584565
lfingers 7.12502
lthumb 37.2003 25.4279
rfemur -6.8968 22.1329 23.0667
rtibia 4.75346
rfoot -13.7002 -25.1811
rtoes 2.52522
lfemur 0.142232 -46.4378 -8.76937
ltibia -3.79054
lfoot -21.4713 52.8234
ltoes 11.327
182
root 0.0636985 17.5018 8.27041 10.4844 2.43605 -8.2179
lowerback -2.0042 1.38086 4.84823
upperback -7.41617 2.04377 1.68464
thorax -6.5058 0.791523 -1.02266
lowerneck -10.5438 -4.79967 -1.1899
upperneck 23.9409 -7.80364 5.12268
head 9.54569 -3.19757 1.07768
rclavicle -1.71452e-015 -5.56597e-015
rhumerus -38.3616 -10.0255 -82.8436
rradius 53.3514
rwrist 35.8511
rhand 21.0171 -41.1225
rfingers 7.12502
rthumb 45.4814 -64.4299
lclavicle -1.71452e-015 -5.56597e-015
lhumerus -43.8246 7.33063 88.9613
lradius 55.1574
lwrist -21.9261
lhand 16.2355 -0.317575
lfingers 7.12502
lthumb 41.0133 24.5946
rfemur -6.89423 22.2384 23.1018
rtibia 4.63876
rfoot -13.6863 -25.3594
rtoes 2.76948
lfemur -0.00631932 -46.4048 -8.59473
ltibia -3.80218
lfoot -21.4064 52.7583
ltoes 11.3075
183
root 0.0644747 17.5013 8.27291 10.5244 2.46784 -8.28656
lowerback -1.49039 1.51491 5.20605
upperback -7.76736 2.27443 1.48749
thorax -7.15379 0.857145 -1.45318
lowerneck -10.3368 -4.85727 -1.26037
upperneck 24.0653 -7.93825 5.36104
head 9.56981 -3.24153 1.16049
rclavicle -5.46658e-016 -9.93923e-015
rhumerus -38.9699 -9.83494 -83.1893
rradius 56.7098
rwrist 34.9776
rhand 23.9697 -44.8084
rfingers 7.12502
rthumb 48.2136 -66.921
lclavicle -5.46658e-016 -9.93923e-015
lhumerus -44.4403 6.52787 89.4308
lradius 58.2722
lwrist -23.6787
lhand 19.427 -0.0536707
lfingers 7.12502
lthumb 44.0009 23.8289
rfemur -6.85376 22.3898 23.1794
rtibia 4.51144
rfoot -13.674 -25.5246
rtoes 2.98091
lfemur -0.0178705 -46.581 -8.49697
ltibia -3.82364
lfoot -21.6864 52.8704
ltoes 11.7344
184
root 0.063432 17.5015 8.2737 10.5841 2.52194 -8.35994
lowerback -1.33853 1.55865 5.36535
upperback -7.88171 2.352 1.44206
thorax -7.35578 0.8769 -1.59827
lowerneck -10.2676 -4.82216 -1.31755
upperneck 24.0654 -7.91332 5.50968
head 9.565 -3.22016 1.2259
rclavicle 2.48481e-016 3.29983e-014
rhumerus -39.0638 -9.41992 -83.5251
rradius 59.5924
rwrist 36.1869
rhand 25.8033 -46.2167
rfingers 7.12502
rthumb 49.8977 -67.493
lclavicle 2.48481e-016 3.29983e-014
lhumerus -44.5348 6.26547 89.9392
lradius 61.3128
lwrist -25.3358
lhand 21.5407 0.578802
lfingers 7.12502
lthumb 45.9676 23.6868
rfemur -6.85867 22.5324 23.2544
rtibia 4.40912
rfoot -13.6839 -25.6961
rtoes 3.05016
lfemur -0.097106 -46.7708 -8.33173
ltibia -3.83953
lfoot -21.8452 52.9948
ltoes 11.8731
185
root 0.0614398 17.5015 8.27218 10.6644 2.61585 -8.3745
lowerback -1.36646 1.54456 5.37709
upperback -7.89059 2.33321 1.46143
thorax -7.35107 0.867685 -1.5829
lowerneck -10.1968 -4.68597 -1.10533
upperneck 24.0296 -7.73905 5.43289
head 9.51991 -3.13044 1.18675
rclavicle 1.46604e-014 -3.97569e-014
rhumerus -38.8215 -8.81568 -83.8857
rradius 62.2542
rwrist 38.3231
rhand 26.9268 -46.5959
rfingers 7.12502
rthumb 50.924 -67.3196
lclavicle 1.46604e-014 -3.97569e-014
lhumerus -44.3227 6.0749 90.5087
lradius 64.2009
lwrist -26.5571
lhand 22.4097 1.2107
lfingers 7.12502
lthumb 46.773 23.9763
rfemur -6.90367 22.6622 23.2478
rtibia 4.31948
rfoot -13.7135 -25.8876
rtoes 3.20751
lfemur -0.315703 -46.7808 -8.13298
ltibia -3.82389
lfoot -21.7593 52.9449
ltoes 11.7702
186
root 0.0604557 17.5009 8.27185 10.6958 2.66384 -8.32787
lowerback -1.36711 1.54684 5.36018
upperback -7.8937 2.33481 1.44111
thorax -7.35351 0.868755 -1.59492
lowerneck -10.0519 -4.5093 -0.441085
upperneck 24.0348 -7.52962 5.08003
head 9.44546 -3.01392 0.983467
rclavicle 7.20594e-015 -4.21423e-014
rhumerus -38.5577 -8.08833 -84.3169
rradius 65.0882
rwrist 40.1822
rhand 27.9116 -47.3446
rfingers 7.12502
rthumb 51.8199 -67.5566
lclavicle 7.20594e-015 -4.21423e-014
lhumerus -43.9986 5.68183 91.0287
lradius 66.8749
lwrist -27.3753
lhand 21.8901 1.47237
lfingers 7.12502
lthumb 46.2916 24.4445
rfemur -6.86278 22.7585 23.197
rtibia 4.20477
rfoot -13.7193 -26.023
rtoes 3.40071
lfemur -0.375742 -46.8759 -8.14505
ltibia -3.80302
lfoot -21.8454 52.9801
ltoes 11.8698
187
root 0.0601115 17.5023 8.274 10.6481 2.61877 -8.31096
lowerback -1.30739 1.58198 5.37811
upperback -7.87559 2.38463 1.41822
thorax -7.36366 0.891325 -1.63271
lowerneck -10.139 -4.38614 -0.0828851
upperneck 24.2737 -7.37995 4.82399
head 9.51715 -2.93039 0.850604
rclavicle 4.47266e-015 2.78299e-015
rhumerus -38.2299 -7.15528 -84.811
rradius 67.9872
rwrist 41.4621
rhand 28.4431 -48.1316
rfingers 7.12502
rthumb 52.3019 -68.0561
lclavicle 4.47266e-015 2.78299e-015
lhumerus -43.5727 5.13705 91.5045
lradius 69.4944
lwrist -27.978
lhand 20.9356 1.80746
lfingers 7.12502
lthumb 45.4057 25.1454
rfemur -6.71258 22.8476 23.2309
rtibia 4.07899
rfoot -13.6498 -26.1027
rtoes 3.41511
lfemur -0.177195 -47.0111 -8.30724
ltibia -3.84718
lfoot -21.9289 53.1366
ltoes 11.7978
